<svg viewBox="0 0 16 17" fill="none" xmlns="http://www.w3.org/2000/svg">
    <rect fill="#AEB9C6" y=".5" width="16" height="16" rx="8"/>
    <path fill="#fff" d="M8.865 3.017h1.527a2.839 2.839 0 0 0 1.272 1.86c.455.29.997.459 1.58.459v2.037a5.038 5.038 0 0 1-2.902-.911v4.141c0 2.069-1.721 3.751-3.838 3.751a3.876 3.876 0 0 1-2.2-.68 3.725 3.725 0 0 1-1.638-3.071c0-2.069 1.722-3.751 3.838-3.751.176 0 .348.014.517.036V8.97a1.764 1.764 0 0 0-.517-.08c-.966 0-1.753.77-1.753 1.714 0 .658.382 1.23.94 1.516.243.126.52.197.813.197.944 0 1.715-.734 1.75-1.648L8.257 2.5h2.085c0 .177.018.35.05.517H8.865Z"/>
</svg>
